PathFileType	4	(X/Y/Z)	pose_F01_0-89.trc
DataRate	CameraRate	NumFrames	NumMarkers	Units	OrigDataRate	OrigDataStartFrame	OrigNumFrames
30	30	7	21	m	30	25	89
Frame#	Time	CHip			RHip			RKnee			RAnkle			RBigToe			RSmallToe			RHeel			LHip			LKnee			LAnkle			LBigToe			LSmallToe			LHeel			Neck			Nose			RShoulder			RElbow			RWrist			LShoulder			LElbow			LWrist			
		X1	Y1	Z1	X2	Y2	Z2	X3	Y3	Z3	X4	Y4	Z4	X5	Y5	Z5	X6	Y6	Z6	X7	Y7	Z7	X8	Y8	Z8	X9	Y9	Z9	X10	Y10	Z10	X11	Y11	Z11	X12	Y12	Z12	X13	Y13	Z13	X14	Y14	Z14	X15	Y15	Z15	X16	Y16	Z16	X17	Y17	Z17	X18	Y18	Z18	X19	Y19	Z19	X20	Y20	Z20	X21	Y21	Z21	
25	0.8333333333333334	-0.22936958253289885	1.8360839991255835	-0.4516980661032231	-0.2415220266633582	1.8322132320507163	-0.39669763528366087	-0.24607690018723224	1.7173037171630696	-0.4052565097475197													-0.21603941716811298	1.8389255119954584	-0.5152273659266493	-0.21575885416398316	1.7252144596003376	-0.46278065669256996	-0.23374462180958266	1.624813836111612	-0.4690228441007768	-0.23835198179638853	1.587645000703577	-0.5101649786184993	-0.22427457844043788	1.6128552940250862	-0.493671392167171				-0.2236737147885762	1.978175954908133	-0.47272638112695475	-0.23417755516407118	2.030576050946261	-0.5272565041048131	-0.24542058391245022	1.9730632830116372	-0.38998391704987845	-0.25558965308098097	1.892946731764173	-0.34771444431808446	-0.2643362945957473	1.8254257068862747	-0.3367921043608032	-0.19937603474515397	1.9827803139071611	-0.5637474008181546	-0.17022308200289946	1.9330733155671742	-0.5959846054700029	-0.1841763721110041	1.8871810254740462	-0.5975891106399107
26	0.8666666666666667	-0.2373357403580958	1.830247651992369	-0.46873033121223984	-0.24984414852490128	1.8279022302206527	-0.41426041363368116	-0.24607690018723224	1.7173037171630696	-0.4052565097475197													-0.22088309058851807	1.8321028907049621	-0.5225147756234076	-0.2233392499016656	1.7155138990527528	-0.4712341201600585	-0.23374462180958266	1.624813836111612	-0.4690228441007768	-0.23835198179638853	1.587645000703577	-0.5101649786184993	-0.22427457844043788	1.6128552940250862	-0.493671392167171				-0.23150992977758877	1.9776289248656853	-0.48075124107440836	-0.2391179741732966	2.0346974110681795	-0.5271553677795119	-0.2524027059948242	1.972817684628959	-0.3955165128449696	-0.26093682958301495	1.8933085283580422	-0.35557097790580483	-0.26935643517327235	1.8244893358365517	-0.34996252685817153	-1.6193314498738562	1.8888801063773808	0.972924909348064	-0.1775825233763151	1.9270923589789073	-0.6008613649267931	-0.19510108253131372	1.8979783678887558	-0.6174884265560036
27	0.9	-0.24296060454989946	1.827999268582721	-0.4672328628271585	-0.25715179884883815	1.823100872020737	-0.41035124276665474	-0.24607690018723224	1.7173037171630696	-0.4052565097475197													-0.2285511521425556	1.8298115227282492	-0.5272479408084564	-0.2233392499016656	1.7155138990527528	-0.4712341201600585	-0.23374462180958266	1.624813836111612	-0.4690228441007768	-0.23835198179638853	1.587645000703577	-0.5101649786184993	-0.22427457844043788	1.6128552940250862	-0.493671392167171				-1.7696409414237433	1.889800294671085	1.2180761966109672	-0.24493773178591355	2.0380237793697544	-0.5292329419764759	-0.2573495034141278	1.9739851857609876	-0.3949021340028994	-0.2689350070338192	1.8919820457306138	-0.36413149542278606	-0.2751019626552073	1.8178152099569262	-0.35174099338769704	-0.20858858306942563	1.9831392613259948	-0.5577929832651415	-0.18089769657567337	1.9237889073070626	-0.6016385721819809	-0.21381730979699984	1.901832672166846	-0.6062044551381381
28	0.9333333333333333	-0.2474300403790121	1.8348203537258265	-0.4756979680676507	-0.2639248743071199	1.8309132894154287	-0.41662420606434236	-0.24607690018723224	1.7173037171630696	-0.4052565097475197													-0.2330904024720615	1.8338393685352428	-0.5353173566097692	-0.2233392499016656	1.7155138990527528	-0.4712341201600585	-0.23374462180958266	1.624813836111612	-0.4690228441007768	-0.23835198179638853	1.587645000703577	-0.5101649786184993	-0.22427457844043788	1.6128552940250862	-0.493671392167171				-1.7622388910396944	1.8896352465487132	1.2031768010731292	-0.24795027679861378	2.0403435148482485	-0.5306670103577458	-0.26011511975671303	1.9766259577303928	-0.39603005631571586	-0.27191425819273757	1.895049706157409	-0.3658941104046152	-0.2846106379081873	1.826127187722362	-0.35653721475497746	-0.21353320525996355	1.9837391950534677	-0.5565151885728784	-0.19322412977928397	1.919668796798816	-0.5967966340664792	-0.21101336128343548	1.9148070626729614	-0.6392029253676946
29	0.9666666666666667	-0.2516407742421976	1.8293957368985674	-0.4796164794195495	-0.267982496245587	1.8275558628311621	-0.420666428486398	-0.24607690018723224	1.7173037171630696	-0.4052565097475197													-0.23613387644722114	1.830375823751149	-0.5361731082033284	-0.2233392499016656	1.7155138990527528	-0.4712341201600585	-0.23374462180958266	1.624813836111612	-0.4690228441007768	-0.23835198179638853	1.587645000703577	-0.5101649786184993	-0.22427457844043788	1.6128552940250862	-0.493671392167171				-1.753717879380204	1.8896844243632231	1.1870127517741618	-0.2509006911521641	2.042975302840161	-0.5403845491577599	-0.26300096906909004	1.9782860521377974	-0.39720586316254425	-0.2766949376310957	1.897626260850055	-0.3653520387988391	-0.2917560849571557	1.8292246848391163	-0.362570422522535	-0.21550652390256322	1.9837543690564392	-0.5628161065018793	-0.19576956574785706	1.9148272305807916	-0.6231585667355651	-0.22090203888297685	1.9217061639790816	-0.6544268648590741
30	1.0	-0.25223649391887704	1.8272530847301534	-0.4828593370220248	-0.26893102161474586	1.8253430503893557	-0.4238968511998741	-0.24607690018723224	1.7173037171630696	-0.4052565097475197													-0.23702094229371784	1.8293045751189183	-0.5393276677284384	-0.2233392499016656	1.7155138990527528	-0.4712341201600585	-0.23374462180958266	1.624813836111612	-0.4690228441007768	-0.23835198179638853	1.587645000703577	-0.5101649786184993	-0.22427457844043788	1.6128552940250862	-0.493671392167171				-1.7545482682532194	1.8897020947399277	1.18746036063221	-0.25186800581181834	2.043777059106205	-0.5433230396531546	-0.266022049256188	1.9785632506903508	-0.3982482144508396	-0.28088143254254644	1.898217731999235	-0.36985918959786385	-0.2947595016865264	1.826919942877563	-0.3637798102610355	-0.21818717137211022	1.9847939091666371	-0.5722018444413263	-0.1988103692787485	1.916002949718667	-0.6329121116388441	-0.22680386472581732	1.9221107164662217	-0.664755145821792
31	1.0333333333333334	-0.2536609358255458	1.8292271774112039	-0.48737173068413	-0.2696486662911977	1.8262031755633163	-0.42623956755962406	-0.24607690018723224	1.7173037171630696	-0.4052565097475197													-0.2364942093708654	1.8333030708132754	-0.5399245034139712	-0.2233392499016656	1.7155138990527528	-0.4712341201600585	-0.23374462180958266	1.624813836111612	-0.4690228441007768	-0.23835198179638853	1.587645000703577	-0.5101649786184993	-0.22705619231986263	1.5950205919184515	-0.5227554549463466				-0.24445787583892148	1.9830436826339983	-0.48872619536302936	-0.2518355810688704	2.045105876155527	-0.5434365414071646	-0.2700772435487706	1.9800451256941118	-0.40305795427362257	-0.28598849886525674	1.8970930726763002	-0.37732861878918017	-0.2969777570170354	1.8269417983991074	-0.3701524126771176	-0.21921435815410167	1.984223620705646	-0.5754944596332323	-0.21151904410395375	1.9213502630508081	-0.640202351692714	-0.23455600671297647	1.9273106141158443	-0.6731469887849313
